<mxfile host="app.diagrams.net" modified="2023-03-05T16:26:34.624Z" agent="5.0 (Windows NT 10.0; Win64; x64) AppleWebKit/537.36 (KHTML, like Gecko) Chrome/110.0.0.0 Safari/537.36" etag="5BIxKKZD9CtTDuGJUYj9" version="21.0.2" type="github">
  <diagram name="Page-1" id="chvwjB_n179PtJqGOUUq">
    <mxGraphModel dx="2868" dy="1512" grid="1" gridSize="10" guides="1" tooltips="1" connect="1" arrows="1" fold="1" page="1" pageScale="1" pageWidth="1600" pageHeight="1200" math="0" shadow="0">
      <root>
        <mxCell id="0" />
        <mxCell id="1" parent="0" />
      </root>
    </mxGraphModel>
  </diagram>
</mxfile>
